<svg xmlns="http://www.w3.org/2000/svg" xmlns:xlink="http://www.w3.org/1999/xlink" contentStyleType="text/css" data-diagram-type="CLASS" height="795px" preserveAspectRatio="none" style="width:2096px;height:795px;background:#FFFFFF;" version="1.1" viewBox="0 0 2096 795" width="2096px" zoomAndPan="magnify"><defs/><g><!--class users--><g class="entity" data-entity="users" data-source-line="1" data-uid="ent0002" id="entity_users"><rect fill="#F1F1F1" height="145.7813" rx="2.5" ry="2.5" style="stroke:#181818;stroke-width:0.5;" width="190.3086" x="584.93" y="189.04"/><ellipse cx="656.9193" cy="205.04" fill="#ADD1B2" rx="11" ry="11" style="stroke:#181818;stroke-width:1;"/><path d="M661.0286,211.04 L653.3099,211.04 L653.3099,198.6494 L661.0286,198.6494 L661.0286,200.8056 L655.763,200.8056 L655.763,203.4775 L660.5286,203.4775 L660.5286,205.6337 L655.763,205.6337 L655.763,208.8837 L661.0286,208.8837 L661.0286,211.04 Z " fill="#000000"/><text fill="#000000" font-family="sans-serif" font-size="14" lengthAdjust="spacing" textLength="37.8301" x="677.4193" y="209.8867">users</text><line style="stroke:#181818;stroke-width:0.5;" x1="585.93" x2="774.2386" y1="221.04" y2="221.04"/><ellipse cx="595.93" cy="234.6884" fill="#000000" rx="3" ry="3" style="stroke:#000000;stroke-width:1;"/><text fill="#000000" font-family="sans-serif" font-size="14" lengthAdjust="spacing" textLength="127.0186" x="604.93" y="238.0351">id : INTEGER &#171;PK&#187;</text><ellipse cx="595.93" cy="250.9853" fill="#000000" rx="3" ry="3" style="stroke:#000000;stroke-width:1;"/><text fill="#000000" font-family="sans-serif" font-size="14" lengthAdjust="spacing" textLength="164.3086" x="604.93" y="254.332">email : TEXT &#171;UNIQUE&#187;</text><ellipse cx="595.93" cy="267.2822" fill="#000000" rx="3" ry="3" style="stroke:#000000;stroke-width:1;"/><text fill="#000000" font-family="sans-serif" font-size="14" lengthAdjust="spacing" textLength="156.4883" x="604.93" y="270.6289">password_hash : TEXT</text><text fill="#000000" font-family="sans-serif" font-size="14" lengthAdjust="spacing" textLength="88.8604" x="604.93" y="286.9257">name : TEXT</text><text fill="#000000" font-family="sans-serif" font-size="14" lengthAdjust="spacing" textLength="75.9814" x="604.93" y="303.2226">role : TEXT</text><text fill="#000000" font-family="sans-serif" font-size="14" lengthAdjust="spacing" textLength="159.6807" x="604.93" y="319.5195">created_at : DATETIME</text><line style="stroke:#181818;stroke-width:0.5;" x1="585.93" x2="774.2386" y1="326.8212" y2="326.8212"/></g><!--class sessions--><g class="entity" data-entity="sessions" data-source-line="10" data-uid="ent0003" id="entity_sessions"><rect fill="#F1F1F1" height="162.0781" rx="2.5" ry="2.5" style="stroke:#181818;stroke-width:0.5;" width="250.1709" x="7" y="419.97"/><ellipse cx="98.2769" cy="435.97" fill="#ADD1B2" rx="11" ry="11" style="stroke:#181818;stroke-width:1;"/><path d="M102.3862,441.97 L94.6675,441.97 L94.6675,429.5794 L102.3862,429.5794 L102.3862,431.7356 L97.1206,431.7356 L97.1206,434.4075 L101.8862,434.4075 L101.8862,436.5637 L97.1206,436.5637 L97.1206,439.8137 L102.3862,439.8137 L102.3862,441.97 Z " fill="#000000"/><text fill="#000000" font-family="sans-serif" font-size="14" lengthAdjust="spacing" textLength="59.1172" x="118.7769" y="440.8167">sessions</text><line style="stroke:#181818;stroke-width:0.5;" x1="8" x2="256.1709" y1="451.97" y2="451.97"/><ellipse cx="18" cy="465.6184" fill="#000000" rx="3" ry="3" style="stroke:#000000;stroke-width:1;"/><text fill="#000000" font-family="sans-serif" font-size="14" lengthAdjust="spacing" textLength="127.0186" x="27" y="468.9651">id : INTEGER &#171;PK&#187;</text><ellipse cx="18" cy="481.9153" fill="#000000" rx="3" ry="3" style="stroke:#000000;stroke-width:1;"/><text fill="#000000" font-family="sans-serif" font-size="14" lengthAdjust="spacing" textLength="164.165" x="27" y="485.262">user_id : INTEGER &#171;FK&#187;</text><text fill="#000000" font-family="sans-serif" font-size="14" lengthAdjust="spacing" textLength="224.1709" x="27" y="501.5589">session_token : TEXT &#171;UNIQUE&#187;</text><text fill="#000000" font-family="sans-serif" font-size="14" lengthAdjust="spacing" textLength="157.3838" x="27" y="517.8557">expires_at : DATETIME</text><text fill="#000000" font-family="sans-serif" font-size="14" lengthAdjust="spacing" textLength="127.1348" x="27" y="534.1526">user_agent : TEXT</text><text fill="#000000" font-family="sans-serif" font-size="14" lengthAdjust="spacing" textLength="124.2432" x="27" y="550.4495">ip_address : TEXT</text><text fill="#000000" font-family="sans-serif" font-size="14" lengthAdjust="spacing" textLength="159.6807" x="27" y="566.7464">created_at : DATETIME</text><line style="stroke:#181818;stroke-width:0.5;" x1="8" x2="256.1709" y1="574.0481" y2="574.0481"/></g><!--class categories--><g class="entity" data-entity="categories" data-source-line="20" data-uid="ent0004" id="entity_categories"><rect fill="#F1F1F1" height="96.8906" rx="2.5" ry="2.5" style="stroke:#181818;stroke-width:0.5;" width="205.8262" x="1461.17" y="7"/><ellipse cx="1523.1412" cy="23" fill="#ADD1B2" rx="11" ry="11" style="stroke:#181818;stroke-width:1;"/><path d="M1527.2506,29 L1519.5318,29 L1519.5318,16.6094 L1527.2506,16.6094 L1527.2506,18.7656 L1521.9849,18.7656 L1521.9849,21.4375 L1526.7506,21.4375 L1526.7506,23.5938 L1521.9849,23.5938 L1521.9849,26.8438 L1527.2506,26.8438 L1527.2506,29 Z " fill="#000000"/><text fill="#000000" font-family="sans-serif" font-size="14" lengthAdjust="spacing" textLength="73.3838" x="1543.6412" y="27.8467">categories</text><line style="stroke:#181818;stroke-width:0.5;" x1="1462.17" x2="1665.9962" y1="39" y2="39"/><ellipse cx="1472.17" cy="52.6484" fill="#000000" rx="3" ry="3" style="stroke:#000000;stroke-width:1;"/><text fill="#000000" font-family="sans-serif" font-size="14" lengthAdjust="spacing" textLength="127.0186" x="1481.17" y="55.9951">id : INTEGER &#171;PK&#187;</text><text fill="#000000" font-family="sans-serif" font-size="14" lengthAdjust="spacing" textLength="88.8604" x="1481.17" y="72.292">name : TEXT</text><text fill="#000000" font-family="sans-serif" font-size="14" lengthAdjust="spacing" textLength="179.8262" x="1481.17" y="88.5889">parent_id : INTEGER &#171;FK&#187;</text><line style="stroke:#181818;stroke-width:0.5;" x1="1462.17" x2="1665.9962" y1="95.8906" y2="95.8906"/></g><!--class products--><g class="entity" data-entity="products" data-source-line="26" data-uid="ent0005" id="entity_products"><rect fill="#F1F1F1" height="162.0781" rx="2.5" ry="2.5" style="stroke:#181818;stroke-width:0.5;" width="221.501" x="1453.33" y="180.89"/><ellipse cx="1529.1064" cy="196.89" fill="#ADD1B2" rx="11" ry="11" style="stroke:#181818;stroke-width:1;"/><path d="M1533.2157,202.89 L1525.497,202.89 L1525.497,190.4994 L1533.2157,190.4994 L1533.2157,192.6556 L1527.9501,192.6556 L1527.9501,195.3275 L1532.7157,195.3275 L1532.7157,197.4838 L1527.9501,197.4838 L1527.9501,200.7338 L1533.2157,200.7338 L1533.2157,202.89 Z " fill="#000000"/><text fill="#000000" font-family="sans-serif" font-size="14" lengthAdjust="spacing" textLength="61.4482" x="1549.6064" y="201.7367">products</text><line style="stroke:#181818;stroke-width:0.5;" x1="1454.33" x2="1673.831" y1="212.89" y2="212.89"/><ellipse cx="1464.33" cy="226.5384" fill="#000000" rx="3" ry="3" style="stroke:#000000;stroke-width:1;"/><text fill="#000000" font-family="sans-serif" font-size="14" lengthAdjust="spacing" textLength="127.0186" x="1473.33" y="229.8851">id : INTEGER &#171;PK&#187;</text><text fill="#000000" font-family="sans-serif" font-size="14" lengthAdjust="spacing" textLength="88.8604" x="1473.33" y="246.182">name : TEXT</text><text fill="#000000" font-family="sans-serif" font-size="14" lengthAdjust="spacing" textLength="126.998" x="1473.33" y="262.4789">description : TEXT</text><text fill="#000000" font-family="sans-serif" font-size="14" lengthAdjust="spacing" textLength="109.8809" x="1473.33" y="278.7757">price : INTEGER</text><text fill="#000000" font-family="sans-serif" font-size="14" lengthAdjust="spacing" textLength="112.1914" x="1473.33" y="295.0726">stock : INTEGER</text><text fill="#000000" font-family="sans-serif" font-size="14" lengthAdjust="spacing" textLength="195.501" x="1473.33" y="311.3695">category_id : INTEGER &#171;FK&#187;</text><text fill="#000000" font-family="sans-serif" font-size="14" lengthAdjust="spacing" textLength="159.6807" x="1473.33" y="327.6664">created_at : DATETIME</text><line style="stroke:#181818;stroke-width:0.5;" x1="1454.33" x2="1673.831" y1="334.9681" y2="334.9681"/></g><!--class products_fts--><g class="entity" data-entity="products_fts" data-source-line="36" data-uid="ent0006" id="entity_products_fts"><rect fill="#F1F1F1" height="96.8906" rx="2.5" ry="2.5" style="stroke:#181818;stroke-width:0.5;" width="178.79" x="1773.69" y="7"/><ellipse cx="1815.9734" cy="23" fill="#ADD1B2" rx="11" ry="11" style="stroke:#181818;stroke-width:1;"/><path d="M1820.0828,29 L1812.3641,29 L1812.3641,16.6094 L1820.0828,16.6094 L1820.0828,18.7656 L1814.8172,18.7656 L1814.8172,21.4375 L1819.5828,21.4375 L1819.5828,23.5938 L1814.8172,23.5938 L1814.8172,26.8438 L1820.0828,26.8438 L1820.0828,29 Z " fill="#000000"/><text fill="#000000" font-family="sans-serif" font-size="14" lengthAdjust="spacing" textLength="86.1602" x="1836.0364" y="27.8467">products_fts</text><line style="stroke:#181818;stroke-width:0.5;" x1="1774.69" x2="1951.48" y1="39" y2="39"/><ellipse cx="1784.69" cy="52.6484" fill="#000000" rx="3" ry="3" style="stroke:#000000;stroke-width:1;"/><text fill="#000000" font-family="sans-serif" font-size="14" lengthAdjust="spacing" textLength="152.79" x="1793.69" y="55.9951">rowid : INTEGER &#171;PK&#187;</text><text fill="#000000" font-family="sans-serif" font-size="14" lengthAdjust="spacing" textLength="88.8604" x="1793.69" y="72.292">name : TEXT</text><text fill="#000000" font-family="sans-serif" font-size="14" lengthAdjust="spacing" textLength="126.998" x="1793.69" y="88.5889">description : TEXT</text><line style="stroke:#181818;stroke-width:0.5;" x1="1774.69" x2="1951.48" y1="95.8906" y2="95.8906"/></g><!--class images--><g class="entity" data-entity="images" data-source-line="42" data-uid="ent0007" id="entity_images"><rect fill="#F1F1F1" height="145.7813" rx="2.5" ry="2.5" style="stroke:#181818;stroke-width:0.5;" width="213.7832" x="1503.19" y="428.12"/><ellipse cx="1580.3814" cy="444.12" fill="#ADD1B2" rx="11" ry="11" style="stroke:#181818;stroke-width:1;"/><path d="M1584.4908,450.12 L1576.772,450.12 L1576.772,437.7294 L1584.4908,437.7294 L1584.4908,439.8856 L1579.2252,439.8856 L1579.2252,442.5575 L1583.9908,442.5575 L1583.9908,444.7137 L1579.2252,444.7137 L1579.2252,447.9637 L1584.4908,447.9637 L1584.4908,450.12 Z " fill="#000000"/><text fill="#000000" font-family="sans-serif" font-size="14" lengthAdjust="spacing" textLength="50.9004" x="1600.8814" y="448.9667">images</text><line style="stroke:#181818;stroke-width:0.5;" x1="1504.19" x2="1715.9732" y1="460.12" y2="460.12"/><ellipse cx="1514.19" cy="473.7684" fill="#000000" rx="3" ry="3" style="stroke:#000000;stroke-width:1;"/><text fill="#000000" font-family="sans-serif" font-size="14" lengthAdjust="spacing" textLength="127.0186" x="1523.19" y="477.1151">id : INTEGER &#171;PK&#187;</text><text fill="#000000" font-family="sans-serif" font-size="14" lengthAdjust="spacing" textLength="187.7832" x="1523.19" y="493.412">product_id : INTEGER &#171;FK&#187;</text><text fill="#000000" font-family="sans-serif" font-size="14" lengthAdjust="spacing" textLength="118.2822" x="1523.19" y="509.7089">image_url : TEXT</text><text fill="#000000" font-family="sans-serif" font-size="14" lengthAdjust="spacing" textLength="101.9922" x="1523.19" y="526.0057">alt_text : TEXT</text><text fill="#000000" font-family="sans-serif" font-size="14" lengthAdjust="spacing" textLength="135.1191" x="1523.19" y="542.3026">is_main : BOOLEAN</text><text fill="#000000" font-family="sans-serif" font-size="14" lengthAdjust="spacing" textLength="159.6807" x="1523.19" y="558.5995">created_at : DATETIME</text><line style="stroke:#181818;stroke-width:0.5;" x1="1504.19" x2="1715.9732" y1="565.9012" y2="565.9012"/></g><!--class tags--><g class="entity" data-entity="tags" data-source-line="51" data-uid="ent0008" id="entity_tags"><rect fill="#F1F1F1" height="80.5938" rx="2.5" ry="2.5" style="stroke:#181818;stroke-width:0.5;" width="191.4023" x="1886.38" y="221.63"/><ellipse cx="1962.7067" cy="237.63" fill="#ADD1B2" rx="11" ry="11" style="stroke:#181818;stroke-width:1;"/><path d="M1966.816,243.63 L1959.0973,243.63 L1959.0973,231.2394 L1966.816,231.2394 L1966.816,233.3956 L1961.5504,233.3956 L1961.5504,236.0675 L1966.316,236.0675 L1966.316,238.2238 L1961.5504,238.2238 L1961.5504,241.4738 L1966.816,241.4738 L1966.816,243.63 Z " fill="#000000"/><text fill="#000000" font-family="sans-serif" font-size="14" lengthAdjust="spacing" textLength="30.249" x="1983.2067" y="242.4767">tags</text><line style="stroke:#181818;stroke-width:0.5;" x1="1887.38" x2="2076.7823" y1="253.63" y2="253.63"/><ellipse cx="1897.38" cy="267.2784" fill="#000000" rx="3" ry="3" style="stroke:#000000;stroke-width:1;"/><text fill="#000000" font-family="sans-serif" font-size="14" lengthAdjust="spacing" textLength="127.0186" x="1906.38" y="270.6251">id : INTEGER &#171;PK&#187;</text><text fill="#000000" font-family="sans-serif" font-size="14" lengthAdjust="spacing" textLength="165.4023" x="1906.38" y="286.922">name : TEXT &#171;UNIQUE&#187;</text><line style="stroke:#181818;stroke-width:0.5;" x1="1887.38" x2="2076.7823" y1="294.2238" y2="294.2238"/></g><!--class product_tags--><g class="entity" data-entity="product_tags" data-source-line="56" data-uid="ent0009" id="entity_product_tags"><rect fill="#F1F1F1" height="80.5938" rx="2.5" ry="2.5" style="stroke:#181818;stroke-width:0.5;" width="214.1729" x="1875" y="460.71"/><ellipse cx="1932.1348" cy="476.71" fill="#ADD1B2" rx="11" ry="11" style="stroke:#181818;stroke-width:1;"/><path d="M1936.2441,482.71 L1928.5254,482.71 L1928.5254,470.3194 L1936.2441,470.3194 L1936.2441,472.4756 L1930.9785,472.4756 L1930.9785,475.1475 L1935.7441,475.1475 L1935.7441,477.3038 L1930.9785,477.3038 L1930.9785,480.5538 L1936.2441,480.5538 L1936.2441,482.71 Z " fill="#000000"/><text fill="#000000" font-family="sans-serif" font-size="14" lengthAdjust="spacing" textLength="91.4033" x="1952.6348" y="481.5567">product_tags</text><line style="stroke:#181818;stroke-width:0.5;" x1="1876" x2="2088.1729" y1="492.71" y2="492.71"/><ellipse cx="1886" cy="506.3584" fill="#000000" rx="3" ry="3" style="stroke:#000000;stroke-width:1;"/><text fill="#000000" font-family="sans-serif" font-size="14" lengthAdjust="spacing" textLength="188.1729" x="1895" y="509.7051">product_id : INTEGER &#171;PK&#187;</text><ellipse cx="1886" cy="522.6553" fill="#000000" rx="3" ry="3" style="stroke:#000000;stroke-width:1;"/><text fill="#000000" font-family="sans-serif" font-size="14" lengthAdjust="spacing" textLength="156.9736" x="1895" y="526.002">tag_id : INTEGER &#171;PK&#187;</text><line style="stroke:#181818;stroke-width:0.5;" x1="1876" x2="2088.1729" y1="533.3038" y2="533.3038"/></g><!--class cart_items--><g class="entity" data-entity="cart_items" data-source-line="61" data-uid="ent0010" id="entity_cart_items"><rect fill="#F1F1F1" height="145.7813" rx="2.5" ry="2.5" style="stroke:#181818;stroke-width:0.5;" width="213.7832" x="756.19" y="428.12"/><ellipse cx="822.1089" cy="444.12" fill="#ADD1B2" rx="11" ry="11" style="stroke:#181818;stroke-width:1;"/><path d="M826.2183,450.12 L818.4996,450.12 L818.4996,437.7294 L826.2183,437.7294 L826.2183,439.8856 L820.9527,439.8856 L820.9527,442.5575 L825.7183,442.5575 L825.7183,444.7137 L820.9527,444.7137 L820.9527,447.9637 L826.2183,447.9637 L826.2183,450.12 Z " fill="#000000"/><text fill="#000000" font-family="sans-serif" font-size="14" lengthAdjust="spacing" textLength="73.4453" x="842.6089" y="448.9667">cart_items</text><line style="stroke:#181818;stroke-width:0.5;" x1="757.19" x2="968.9732" y1="460.12" y2="460.12"/><ellipse cx="767.19" cy="473.7684" fill="#000000" rx="3" ry="3" style="stroke:#000000;stroke-width:1;"/><text fill="#000000" font-family="sans-serif" font-size="14" lengthAdjust="spacing" textLength="127.0186" x="776.19" y="477.1151">id : INTEGER &#171;PK&#187;</text><text fill="#000000" font-family="sans-serif" font-size="14" lengthAdjust="spacing" textLength="164.165" x="776.19" y="493.412">user_id : INTEGER &#171;FK&#187;</text><text fill="#000000" font-family="sans-serif" font-size="14" lengthAdjust="spacing" textLength="120.7568" x="776.19" y="509.7089">session_id : TEXT</text><text fill="#000000" font-family="sans-serif" font-size="14" lengthAdjust="spacing" textLength="187.7832" x="776.19" y="526.0057">product_id : INTEGER &#171;FK&#187;</text><text fill="#000000" font-family="sans-serif" font-size="14" lengthAdjust="spacing" textLength="133.4033" x="776.19" y="542.3026">quantity : INTEGER</text><text fill="#000000" font-family="sans-serif" font-size="14" lengthAdjust="spacing" textLength="159.6807" x="776.19" y="558.5995">created_at : DATETIME</text><line style="stroke:#181818;stroke-width:0.5;" x1="757.19" x2="968.9732" y1="565.9012" y2="565.9012"/></g><!--class orders--><g class="entity" data-entity="orders" data-source-line="70" data-uid="ent0011" id="entity_orders"><rect fill="#F1F1F1" height="129.4844" rx="2.5" ry="2.5" style="stroke:#181818;stroke-width:0.5;" width="190.165" x="292" y="436.26"/><ellipse cx="360.397" cy="452.26" fill="#ADD1B2" rx="11" ry="11" style="stroke:#181818;stroke-width:1;"/><path d="M364.5063,458.26 L356.7876,458.26 L356.7876,445.8694 L364.5063,445.8694 L364.5063,448.0256 L359.2407,448.0256 L359.2407,450.6975 L364.0063,450.6975 L364.0063,452.8538 L359.2407,452.8538 L359.2407,456.1038 L364.5063,456.1038 L364.5063,458.26 Z " fill="#000000"/><text fill="#000000" font-family="sans-serif" font-size="14" lengthAdjust="spacing" textLength="44.8711" x="380.897" y="457.1067">orders</text><line style="stroke:#181818;stroke-width:0.5;" x1="293" x2="481.165" y1="468.26" y2="468.26"/><ellipse cx="303" cy="481.9084" fill="#000000" rx="3" ry="3" style="stroke:#000000;stroke-width:1;"/><text fill="#000000" font-family="sans-serif" font-size="14" lengthAdjust="spacing" textLength="127.0186" x="312" y="485.2551">id : INTEGER &#171;PK&#187;</text><text fill="#000000" font-family="sans-serif" font-size="14" lengthAdjust="spacing" textLength="164.165" x="312" y="501.552">user_id : INTEGER &#171;FK&#187;</text><text fill="#000000" font-family="sans-serif" font-size="14" lengthAdjust="spacing" textLength="148.8936" x="312" y="517.8489">total_price : INTEGER</text><text fill="#000000" font-family="sans-serif" font-size="14" lengthAdjust="spacing" textLength="92.1758" x="312" y="534.1457">status : TEXT</text><text fill="#000000" font-family="sans-serif" font-size="14" lengthAdjust="spacing" textLength="159.6807" x="312" y="550.4426">created_at : DATETIME</text><line style="stroke:#181818;stroke-width:0.5;" x1="293" x2="481.165" y1="557.7444" y2="557.7444"/></g><!--class order_items--><g class="entity" data-entity="order_items" data-source-line="78" data-uid="ent0012" id="entity_order_items"><rect fill="#F1F1F1" height="129.4844" rx="2.5" ry="2.5" style="stroke:#181818;stroke-width:0.5;" width="228.5215" x="972.82" y="659.05"/><ellipse cx="1041.0803" cy="675.05" fill="#ADD1B2" rx="11" ry="11" style="stroke:#181818;stroke-width:1;"/><path d="M1045.1896,681.05 L1037.4709,681.05 L1037.4709,668.6594 L1045.1896,668.6594 L1045.1896,670.8156 L1039.924,670.8156 L1039.924,673.4875 L1044.6896,673.4875 L1044.6896,675.6438 L1039.924,675.6438 L1039.924,678.8938 L1045.1896,678.8938 L1045.1896,681.05 Z " fill="#000000"/><text fill="#000000" font-family="sans-serif" font-size="14" lengthAdjust="spacing" textLength="83.501" x="1061.5803" y="679.8967">order_items</text><line style="stroke:#181818;stroke-width:0.5;" x1="973.82" x2="1200.3415" y1="691.05" y2="691.05"/><ellipse cx="983.82" cy="704.6984" fill="#000000" rx="3" ry="3" style="stroke:#000000;stroke-width:1;"/><text fill="#000000" font-family="sans-serif" font-size="14" lengthAdjust="spacing" textLength="127.0186" x="992.82" y="708.0451">id : INTEGER &#171;PK&#187;</text><text fill="#000000" font-family="sans-serif" font-size="14" lengthAdjust="spacing" textLength="171.2061" x="992.82" y="724.342">order_id : INTEGER &#171;FK&#187;</text><text fill="#000000" font-family="sans-serif" font-size="14" lengthAdjust="spacing" textLength="187.7832" x="992.82" y="740.6389">product_id : INTEGER &#171;FK&#187;</text><text fill="#000000" font-family="sans-serif" font-size="14" lengthAdjust="spacing" textLength="133.4033" x="992.82" y="756.9357">quantity : INTEGER</text><text fill="#000000" font-family="sans-serif" font-size="14" lengthAdjust="spacing" textLength="202.5215" x="992.82" y="773.2326">price_at_purchase : INTEGER</text><line style="stroke:#181818;stroke-width:0.5;" x1="973.82" x2="1200.3415" y1="780.5344" y2="780.5344"/></g><!--class reviews--><g class="entity" data-entity="reviews" data-source-line="86" data-uid="ent0013" id="entity_reviews"><rect fill="#F1F1F1" height="145.7813" rx="2.5" ry="2.5" style="stroke:#181818;stroke-width:0.5;" width="213.7832" x="1005.19" y="428.12"/><ellipse cx="1080.8809" cy="444.12" fill="#ADD1B2" rx="11" ry="11" style="stroke:#181818;stroke-width:1;"/><path d="M1084.9903,450.12 L1077.2715,450.12 L1077.2715,437.7294 L1084.9903,437.7294 L1084.9903,439.8856 L1079.7247,439.8856 L1079.7247,442.5575 L1084.4903,442.5575 L1084.4903,444.7137 L1079.7247,444.7137 L1079.7247,447.9637 L1084.9903,447.9637 L1084.9903,450.12 Z " fill="#000000"/><text fill="#000000" font-family="sans-serif" font-size="14" lengthAdjust="spacing" textLength="53.9014" x="1101.3809" y="448.9667">reviews</text><line style="stroke:#181818;stroke-width:0.5;" x1="1006.19" x2="1217.9732" y1="460.12" y2="460.12"/><ellipse cx="1016.19" cy="473.7684" fill="#000000" rx="3" ry="3" style="stroke:#000000;stroke-width:1;"/><text fill="#000000" font-family="sans-serif" font-size="14" lengthAdjust="spacing" textLength="127.0186" x="1025.19" y="477.1151">id : INTEGER &#171;PK&#187;</text><text fill="#000000" font-family="sans-serif" font-size="14" lengthAdjust="spacing" textLength="164.165" x="1025.19" y="493.412">user_id : INTEGER &#171;FK&#187;</text><text fill="#000000" font-family="sans-serif" font-size="14" lengthAdjust="spacing" textLength="187.7832" x="1025.19" y="509.7089">product_id : INTEGER &#171;FK&#187;</text><text fill="#000000" font-family="sans-serif" font-size="14" lengthAdjust="spacing" textLength="116.5117" x="1025.19" y="526.0057">rating : INTEGER</text><text fill="#000000" font-family="sans-serif" font-size="14" lengthAdjust="spacing" textLength="115.6709" x="1025.19" y="542.3026">comment : TEXT</text><text fill="#000000" font-family="sans-serif" font-size="14" lengthAdjust="spacing" textLength="159.6807" x="1025.19" y="558.5995">created_at : DATETIME</text><line style="stroke:#181818;stroke-width:0.5;" x1="1006.19" x2="1217.9732" y1="565.9012" y2="565.9012"/></g><!--class wishlists--><g class="entity" data-entity="wishlists" data-source-line="95" data-uid="ent0014" id="entity_wishlists"><rect fill="#F1F1F1" height="113.1875" rx="2.5" ry="2.5" style="stroke:#181818;stroke-width:0.5;" width="213.7832" x="1254.19" y="444.41"/><ellipse cx="1327.15" cy="460.41" fill="#ADD1B2" rx="11" ry="11" style="stroke:#181818;stroke-width:1;"/><path d="M1331.2593,466.41 L1323.5406,466.41 L1323.5406,454.0194 L1331.2593,454.0194 L1331.2593,456.1756 L1325.9937,456.1756 L1325.9937,458.8475 L1330.7593,458.8475 L1330.7593,461.0037 L1325.9937,461.0037 L1325.9937,464.2537 L1331.2593,464.2537 L1331.2593,466.41 Z " fill="#000000"/><text fill="#000000" font-family="sans-serif" font-size="14" lengthAdjust="spacing" textLength="59.3633" x="1347.65" y="465.2567">wishlists</text><line style="stroke:#181818;stroke-width:0.5;" x1="1255.19" x2="1466.9732" y1="476.41" y2="476.41"/><ellipse cx="1265.19" cy="490.0584" fill="#000000" rx="3" ry="3" style="stroke:#000000;stroke-width:1;"/><text fill="#000000" font-family="sans-serif" font-size="14" lengthAdjust="spacing" textLength="127.0186" x="1274.19" y="493.4051">id : INTEGER &#171;PK&#187;</text><text fill="#000000" font-family="sans-serif" font-size="14" lengthAdjust="spacing" textLength="164.165" x="1274.19" y="509.702">user_id : INTEGER &#171;FK&#187;</text><text fill="#000000" font-family="sans-serif" font-size="14" lengthAdjust="spacing" textLength="187.7832" x="1274.19" y="525.9989">product_id : INTEGER &#171;FK&#187;</text><text fill="#000000" font-family="sans-serif" font-size="14" lengthAdjust="spacing" textLength="159.6807" x="1274.19" y="542.2957">created_at : DATETIME</text><line style="stroke:#181818;stroke-width:0.5;" x1="1255.19" x2="1466.9732" y1="549.5975" y2="549.5975"/></g><!--class admin_logs--><g class="entity" data-entity="admin_logs" data-source-line="102" data-uid="ent0015" id="entity_admin_logs"><rect fill="#F1F1F1" height="162.0781" rx="2.5" ry="2.5" style="stroke:#181818;stroke-width:0.5;" width="203.4951" x="517.34" y="419.97"/><ellipse cx="575.0866" cy="435.97" fill="#ADD1B2" rx="11" ry="11" style="stroke:#181818;stroke-width:1;"/><path d="M579.196,441.97 L571.4772,441.97 L571.4772,429.5794 L579.196,429.5794 L579.196,431.7356 L573.9303,431.7356 L573.9303,434.4075 L578.696,434.4075 L578.696,436.5637 L573.9303,436.5637 L573.9303,439.8137 L579.196,439.8137 L579.196,441.97 Z " fill="#000000"/><text fill="#000000" font-family="sans-serif" font-size="14" lengthAdjust="spacing" textLength="79.502" x="595.5866" y="440.8167">admin_logs</text><line style="stroke:#181818;stroke-width:0.5;" x1="518.34" x2="719.8351" y1="451.97" y2="451.97"/><ellipse cx="528.34" cy="465.6184" fill="#000000" rx="3" ry="3" style="stroke:#000000;stroke-width:1;"/><text fill="#000000" font-family="sans-serif" font-size="14" lengthAdjust="spacing" textLength="127.0186" x="537.34" y="468.9651">id : INTEGER &#171;PK&#187;</text><text fill="#000000" font-family="sans-serif" font-size="14" lengthAdjust="spacing" textLength="177.4951" x="537.34" y="485.262">admin_id : INTEGER &#171;FK&#187;</text><text fill="#000000" font-family="sans-serif" font-size="14" lengthAdjust="spacing" textLength="92.251" x="537.34" y="501.5589">action : TEXT</text><text fill="#000000" font-family="sans-serif" font-size="14" lengthAdjust="spacing" textLength="130.2451" x="537.34" y="517.8557">target_type : TEXT</text><text fill="#000000" font-family="sans-serif" font-size="14" lengthAdjust="spacing" textLength="137.6279" x="537.34" y="534.1526">target_id : INTEGER</text><text fill="#000000" font-family="sans-serif" font-size="14" lengthAdjust="spacing" textLength="126.998" x="537.34" y="550.4495">description : TEXT</text><text fill="#000000" font-family="sans-serif" font-size="14" lengthAdjust="spacing" textLength="159.6807" x="537.34" y="566.7464">created_at : DATETIME</text><line style="stroke:#181818;stroke-width:0.5;" x1="518.34" x2="719.8351" y1="574.0481" y2="574.0481"/></g><!--link users to sessions--><g class="link" data-entity-1="users" data-entity-2="sessions" data-source-line="113" data-uid="lnk16" id="link_users_sessions"><path codeLine="113" d="M576.9864,298.1436 C493.6664,327.5636 377.79,371 274.09,419.97 C268.58,422.57 279.0767,417.1943 273.4767,420.0143" fill="none" id="users-sessions" style="stroke:#181818;stroke-width:1;"/><line style="stroke:#181818;stroke-width:1;" x1="579.4264" x2="582.09" y1="293.04" y2="300.5836"/><line style="stroke:#181818;stroke-width:1;" x1="576.5976" x2="579.2612" y1="294.0389" y2="301.5824"/><line style="stroke:#181818;stroke-width:1;" x1="576.9864" x2="584.53" y1="298.1436" y2="295.48"/><line style="stroke:#181818;stroke-width:1;" x1="264.5452" x2="260.0986" y1="424.5119" y2="433.4689"/><line style="stroke:#181818;stroke-width:1;" x1="264.5452" x2="254.7014" y1="424.5119" y2="422.7511"/><line style="stroke:#181818;stroke-width:1;" x1="264.5452" x2="257.4" y1="424.5119" y2="428.11"/><ellipse cx="269.9041" cy="421.8133" fill="none" rx="4" ry="4" style="stroke:#181818;stroke-width:1;"/><text fill="#000000" font-family="sans-serif" font-size="13" lengthAdjust="spacing" textLength="22.9785" x="374.09" y="386.0369">has</text></g><!--link users to cart_items--><g class="link" data-entity-1="users" data-entity-2="cart_items" data-source-line="114" data-uid="lnk17" id="link_users_cart_items"><path codeLine="114" d="M740.6284,341.3627 C763.3384,370.7827 773.6604,384.1619 796.3804,413.5919" fill="none" id="users-cart_items" style="stroke:#181818;stroke-width:1;"/><line style="stroke:#181818;stroke-width:1;" x1="735.0178" x2="741.3506" y1="340.6406" y2="335.7522"/><line style="stroke:#181818;stroke-width:1;" x1="736.851" x2="743.1837" y1="343.0153" y2="338.127"/><line style="stroke:#181818;stroke-width:1;" x1="740.6284" x2="735.74" y1="341.3627" y2="335.03"/><line style="stroke:#181818;stroke-width:1;" x1="802.4913" x2="812.1294" y1="421.5075" y2="424.1735"/><line style="stroke:#181818;stroke-width:1;" x1="802.4913" x2="802.6306" y1="421.5075" y2="431.5065"/><line style="stroke:#181818;stroke-width:1;" x1="802.4913" x2="807.38" y1="421.5075" y2="427.84"/><ellipse cx="798.8248" cy="416.7581" fill="none" rx="4" ry="4" style="stroke:#181818;stroke-width:1;"/><text fill="#000000" font-family="sans-serif" font-size="13" lengthAdjust="spacing" textLength="22.9785" x="777.09" y="386.0369">has</text></g><!--link users to orders--><g class="link" data-entity-1="users" data-entity-2="orders" data-source-line="115" data-uid="lnk18" id="link_users_orders"><path codeLine="115" d="M584.7611,340.0624 C545.0311,372.2124 518.8116,393.4159 480.3116,424.5759" fill="none" id="users-orders" style="stroke:#181818;stroke-width:1;"/><line style="stroke:#181818;stroke-width:1;" x1="585.3543" x2="590.3868" y1="334.4368" y2="340.6557"/><line style="stroke:#181818;stroke-width:1;" x1="583.0222" x2="588.0547" y1="336.3239" y2="342.5428"/><line style="stroke:#181818;stroke-width:1;" x1="584.7611" x2="590.98" y1="340.0624" y2="335.03"/><line style="stroke:#181818;stroke-width:1;" x1="472.5385" x2="470.0947" y1="430.8671" y2="440.5639"/><line style="stroke:#181818;stroke-width:1;" x1="472.5385" x2="462.5453" y1="430.8671" y2="431.2361"/><line style="stroke:#181818;stroke-width:1;" x1="472.5385" x2="466.32" y1="430.8671" y2="435.9"/><ellipse cx="477.2023" cy="427.0924" fill="none" rx="4" ry="4" style="stroke:#181818;stroke-width:1;"/><text fill="#000000" font-family="sans-serif" font-size="13" lengthAdjust="spacing" textLength="22.9785" x="544.09" y="386.0369">has</text></g><!--link users to reviews--><g class="link" data-entity-1="users" data-entity-2="reviews" data-source-line="116" data-uid="lnk19" id="link_users_reviews"><path codeLine="116" d="M782.5778,312.2526 C843.8378,342.4026 917.51,380.02 987.09,419.97 C992.9,423.3 983.3805,417.5367 989.3205,421.0967" fill="none" id="users-reviews" style="stroke:#181818;stroke-width:1;"/><line style="stroke:#181818;stroke-width:1;" x1="777.2226" x2="780.7552" y1="314.0752" y2="306.8974"/><line style="stroke:#181818;stroke-width:1;" x1="779.9142" x2="783.4469" y1="315.4" y2="308.2222"/><line style="stroke:#181818;stroke-width:1;" x1="782.5778" x2="775.4" y1="312.2526" y2="308.72"/><line style="stroke:#181818;stroke-width:1;" x1="997.898" x2="1007.8444" y1="426.2374" y2="425.2035"/><line style="stroke:#181818;stroke-width:1;" x1="997.898" x2="1001.6756" y1="426.2374" y2="435.4965"/><line style="stroke:#181818;stroke-width:1;" x1="997.898" x2="1004.76" y1="426.2374" y2="430.35"/><ellipse cx="992.7515" cy="423.153" fill="none" rx="4" ry="4" style="stroke:#181818;stroke-width:1;"/><text fill="#000000" font-family="sans-serif" font-size="13" lengthAdjust="spacing" textLength="39.457" x="930.09" y="386.0369">writes</text></g><!--link users to wishlists--><g class="link" data-entity-1="users" data-entity-2="wishlists" data-source-line="117" data-uid="lnk20" id="link_users_wishlists"><path codeLine="117" d="M783.6358,263.0578 C902.4458,266.8878 1099.9,286.64 1250.09,372.97 C1280.05,390.19 1295.1358,404.1557 1314.3858,429.6957" fill="none" id="users-wishlists" style="stroke:#181818;stroke-width:1;"/><line style="stroke:#181818;stroke-width:1;" x1="779.509" x2="779.7668" y1="266.9268" y2="258.931"/><line style="stroke:#181818;stroke-width:1;" x1="782.5075" x2="782.7652" y1="267.0235" y2="259.0276"/><line style="stroke:#181818;stroke-width:1;" x1="783.6358" x2="775.64" y1="263.0578" y2="262.8"/><line style="stroke:#181818;stroke-width:1;" x1="1320.4048" x2="1330.0114" y1="437.6814" y2="440.4586"/><line style="stroke:#181818;stroke-width:1;" x1="1320.4048" x2="1320.4286" y1="437.6814" y2="447.6814"/><line style="stroke:#181818;stroke-width:1;" x1="1320.4048" x2="1325.22" y1="437.6814" y2="444.07"/><ellipse cx="1316.7934" cy="432.89" fill="none" rx="4" ry="4" style="stroke:#181818;stroke-width:1;"/><text fill="#000000" font-family="sans-serif" font-size="13" lengthAdjust="spacing" textLength="22.9785" x="1273.09" y="386.0369">has</text></g><!--link users to admin_logs--><g class="link" data-entity-1="users" data-entity-2="admin_logs" data-source-line="118" data-uid="lnk21" id="link_users_admin_logs"><path codeLine="118" d="M659.5365,342.7776 C652.6665,369.4776 651.3153,374.7278 644.2653,402.1278" fill="none" id="users-admin_logs" style="stroke:#181818;stroke-width:1;"/><line style="stroke:#181818;stroke-width:1;" x1="656.6594" x2="664.4071" y1="337.9071" y2="339.9006"/><line style="stroke:#181818;stroke-width:1;" x1="655.9119" x2="663.6595" y1="340.8124" y2="342.8059"/><line style="stroke:#181818;stroke-width:1;" x1="659.5365" x2="661.53" y1="342.7776" y2="335.03"/><line style="stroke:#181818;stroke-width:1;" x1="641.7735" x2="645.5907" y1="411.8123" y2="421.0551"/><line style="stroke:#181818;stroke-width:1;" x1="641.7735" x2="633.9693" y1="411.8123" y2="418.0649"/><line style="stroke:#181818;stroke-width:1;" x1="641.7735" x2="639.78" y1="411.8123" y2="419.56"/><ellipse cx="643.2686" cy="406.0016" fill="none" rx="4" ry="4" style="stroke:#181818;stroke-width:1;"/><text fill="#000000" font-family="sans-serif" font-size="13" lengthAdjust="spacing" textLength="57.3828" x="653.09" y="386.0369">operates</text></g><!--link categories to products--><g class="link" data-entity-1="categories" data-entity-2="products" data-source-line="120" data-uid="lnk22" id="link_categories_products"><path codeLine="120" d="M1564.09,112.39 C1564.09,135.05 1564.09,136.73 1564.09,162.48" fill="none" id="categories-products" style="stroke:#181818;stroke-width:1;"/><line style="stroke:#181818;stroke-width:1;" x1="1560.09" x2="1568.09" y1="108.39" y2="108.39"/><line style="stroke:#181818;stroke-width:1;" x1="1560.09" x2="1568.09" y1="111.39" y2="111.39"/><line style="stroke:#181818;stroke-width:1;" x1="1564.09" x2="1564.09" y1="112.39" y2="104.39"/><line style="stroke:#181818;stroke-width:1;" x1="1564.09" x2="1570.09" y1="172.48" y2="180.48"/><line style="stroke:#181818;stroke-width:1;" x1="1564.09" x2="1558.09" y1="172.48" y2="180.48"/><line style="stroke:#181818;stroke-width:1;" x1="1564.09" x2="1564.09" y1="172.48" y2="180.48"/><ellipse cx="1564.09" cy="166.48" fill="none" rx="4" ry="4" style="stroke:#181818;stroke-width:1;"/><text fill="#000000" font-family="sans-serif" font-size="13" lengthAdjust="spacing" textLength="74.9658" x="1565.09" y="146.9569">categorizes</text></g><!--link categories to categories--><g class="link" data-entity-1="categories" data-entity-2="categories" data-source-line="121" data-uid="lnk23" id="link_categories_categories"><path codeLine="121" d="M1675.1995,40.5381 C1695.5195,42.3181 1702,46.83 1702,55.44 C1702,64.06 1705.4806,67.6805 1685.1606,69.4705" fill="none" id="categories-categories" style="stroke:#181818;stroke-width:1;"/><line style="stroke:#181818;stroke-width:1;" x1="1670.8657" x2="1671.5638" y1="44.1738" y2="36.2043"/><line style="stroke:#181818;stroke-width:1;" x1="1673.8542" x2="1674.5524" y1="44.4356" y2="36.4661"/><line style="stroke:#181818;stroke-width:1;" x1="1675.1995" x2="1667.23" y1="40.5381" y2="39.84"/><line style="stroke:#181818;stroke-width:1;" x1="1675.1991" x2="1667.7565" y1="70.348" y2="77.0269"/><line style="stroke:#181818;stroke-width:1;" x1="1675.1991" x2="1666.7035" y1="70.348" y2="65.0731"/><line style="stroke:#181818;stroke-width:1;" x1="1675.1991" x2="1667.23" y1="70.348" y2="71.05"/><ellipse cx="1681.176" cy="69.8215" fill="none" rx="4" ry="4" style="stroke:#181818;stroke-width:1;"/><text fill="#000000" font-family="sans-serif" font-size="13" lengthAdjust="spacing" textLength="42.8975" x="1708" y="60.0069">parent</text></g><!--link products to images--><g class="link" data-entity-1="products" data-entity-2="images" data-source-line="123" data-uid="lnk24" id="link_products_images"><path codeLine="123" d="M1581.1843,351.0434 C1586.5043,378.4534 1587.4655,383.3888 1592.6455,410.1188" fill="none" id="products-images" style="stroke:#181818;stroke-width:1;"/><line style="stroke:#181818;stroke-width:1;" x1="1576.4954" x2="1584.3489" y1="347.8789" y2="346.3546"/><line style="stroke:#181818;stroke-width:1;" x1="1577.067" x2="1584.9205" y1="350.8239" y2="349.2996"/><line style="stroke:#181818;stroke-width:1;" x1="1581.1843" x2="1579.66" y1="351.0434" y2="343.19"/><line style="stroke:#181818;stroke-width:1;" x1="1594.548" x2="1601.9604" y1="419.9361" y2="426.6485"/><line style="stroke:#181818;stroke-width:1;" x1="1594.548" x2="1590.1796" y1="419.9361" y2="428.9315"/><line style="stroke:#181818;stroke-width:1;" x1="1594.548" x2="1596.07" y1="419.9361" y2="427.79"/><ellipse cx="1593.4065" cy="414.0457" fill="none" rx="4" ry="4" style="stroke:#181818;stroke-width:1;"/><text fill="#000000" font-family="sans-serif" font-size="13" lengthAdjust="spacing" textLength="22.9785" x="1589.09" y="386.0369">has</text></g><!--link products to product_tags--><g class="link" data-entity-1="products" data-entity-2="product_tags" data-source-line="124" data-uid="lnk25" id="link_products_product_tags"><path codeLine="124" d="M1682.6121,308.7369 C1726.6521,327.2969 1769.67,347.51 1813.09,372.97 C1856.78,398.59 1888.524,422.1321 1921.364,448.8821" fill="none" id="products-product_tags" style="stroke:#181818;stroke-width:1;"/><line style="stroke:#181818;stroke-width:1;" x1="1677.3726" x2="1680.4795" y1="310.8695" y2="303.4974"/><line style="stroke:#181818;stroke-width:1;" x1="1680.1371" x2="1683.244" y1="312.0345" y2="304.6625"/><line style="stroke:#181818;stroke-width:1;" x1="1682.6121" x2="1675.24" y1="308.7369" y2="305.63"/><line style="stroke:#181818;stroke-width:1;" x1="1929.1173" x2="1939.1093" y1="455.1976" y2="455.598"/><line style="stroke:#181818;stroke-width:1;" x1="1929.1173" x2="1931.5307" y1="455.1976" y2="464.902"/><line style="stroke:#181818;stroke-width:1;" x1="1929.1173" x2="1935.32" y1="455.1976" y2="460.25"/><ellipse cx="1924.4653" cy="451.4083" fill="none" rx="4" ry="4" style="stroke:#181818;stroke-width:1;"/><text fill="#000000" font-family="sans-serif" font-size="13" lengthAdjust="spacing" textLength="45.8174" x="1838.09" y="386.0369">tagged</text></g><!--link products to cart_items--><g class="link" data-entity-1="products" data-entity-2="cart_items" data-source-line="125" data-uid="lnk26" id="link_products_cart_items"><path codeLine="125" d="M1445.1034,284.3491 C1326.5334,307.9091 1142.74,351.3 988.09,419.97 C982.2,422.58 992.2766,417.2165 986.3666,420.2565" fill="none" id="products-cart_items" style="stroke:#181818;stroke-width:1;"/><line style="stroke:#181818;stroke-width:1;" x1="1448.2471" x2="1449.8063" y1="279.6463" y2="287.4929"/><line style="stroke:#181818;stroke-width:1;" x1="1445.3047" x2="1446.8638" y1="280.2309" y2="288.0775"/><line style="stroke:#181818;stroke-width:1;" x1="1445.1034" x2="1452.95" y1="284.3491" y2="282.79"/><line style="stroke:#181818;stroke-width:1;" x1="977.474" x2="973.1045" y1="424.8307" y2="433.8255"/><line style="stroke:#181818;stroke-width:1;" x1="977.474" x2="967.6155" y1="424.8307" y2="423.1545"/><line style="stroke:#181818;stroke-width:1;" x1="977.474" x2="970.36" y1="424.8307" y2="428.49"/><ellipse cx="982.8095" cy="422.0862" fill="none" rx="4" ry="4" style="stroke:#181818;stroke-width:1;"/><text fill="#000000" font-family="sans-serif" font-size="13" lengthAdjust="spacing" textLength="41.5391" x="1095.09" y="386.0369">in cart</text></g><!--link products to order_items--><g class="link" data-entity-1="products" data-entity-2="order_items" data-source-line="126" data-uid="lnk27" id="link_products_order_items"><path codeLine="126" d="M1680.8804,346.0391 C1704.7704,368.6491 1720.96,389.97 1734.09,419.97 C1762.96,485.96 1779.29,525.96 1734.09,582.05 C1668.45,663.5 1387.0534,698.7235 1219.4934,713.1735" fill="none" id="products-order_items" style="stroke:#181818;stroke-width:1;"/><line style="stroke:#181818;stroke-width:1;" x1="1675.2257" x2="1680.7247" y1="346.1947" y2="340.3843"/><line style="stroke:#181818;stroke-width:1;" x1="1677.4045" x2="1682.9036" y1="348.2569" y2="342.4465"/><line style="stroke:#181818;stroke-width:1;" x1="1680.8804" x2="1675.07" y1="346.0391" y2="340.54"/><line style="stroke:#181818;stroke-width:1;" x1="1209.5304" x2="1202.0755" y1="714.0326" y2="720.6978"/><line style="stroke:#181818;stroke-width:1;" x1="1209.5304" x2="1201.0445" y1="714.0326" y2="708.7422"/><line style="stroke:#181818;stroke-width:1;" x1="1209.5304" x2="1201.56" y1="714.0326" y2="714.72"/><ellipse cx="1215.5082" cy="713.5171" fill="none" rx="4" ry="4" style="stroke:#181818;stroke-width:1;"/><text fill="#000000" font-family="sans-serif" font-size="13" lengthAdjust="spacing" textLength="51.1431" x="1763.09" y="505.5769">ordered</text></g><!--link products to reviews--><g class="link" data-entity-1="products" data-entity-2="reviews" data-source-line="127" data-uid="lnk28" id="link_products_reviews"><path codeLine="127" d="M1446.069,343.0274 C1415.339,361.6574 1388.17,376.08 1355.09,389.97 C1305.19,410.92 1286.73,398.43 1237.09,419.97 C1231.18,422.53 1241.2751,417.2019 1235.3551,420.2119" fill="none" id="products-reviews" style="stroke:#181818;stroke-width:1;"/><line style="stroke:#181818;stroke-width:1;" x1="1447.4158" x2="1451.5632" y1="337.5332" y2="344.3742"/><line style="stroke:#181818;stroke-width:1;" x1="1444.8504" x2="1448.9978" y1="339.0884" y2="345.9294"/><line style="stroke:#181818;stroke-width:1;" x1="1446.069" x2="1452.91" y1="343.0274" y2="338.88"/><line style="stroke:#181818;stroke-width:1;" x1="1226.4412" x2="1222.0294" y1="424.7442" y2="433.7184"/><line style="stroke:#181818;stroke-width:1;" x1="1226.4412" x2="1216.5906" y1="424.7442" y2="423.0216"/><line style="stroke:#181818;stroke-width:1;" x1="1226.4412" x2="1219.31" y1="424.7442" y2="428.37"/><ellipse cx="1231.7895" cy="422.0248" fill="none" rx="4" ry="4" style="stroke:#181818;stroke-width:1;"/><text fill="#000000" font-family="sans-serif" font-size="13" lengthAdjust="spacing" textLength="59.5283" x="1392.09" y="386.0369">reviewed</text></g><!--link products to wishlists--><g class="link" data-entity-1="products" data-entity-2="wishlists" data-source-line="128" data-uid="lnk29" id="link_products_wishlists"><path codeLine="128" d="M1507.3791,349.8934 C1496.0991,365.7834 1488.45,375.48 1476.09,389.97 C1460.3,408.46 1454.7993,414.8208 1437.2893,431.5108" fill="none" id="products-wishlists" style="stroke:#181818;stroke-width:1;"/><line style="stroke:#181818;stroke-width:1;" x1="1506.4329" x2="1512.9563" y1="344.3163" y2="348.9471"/><line style="stroke:#181818;stroke-width:1;" x1="1504.6963" x2="1511.2197" y1="346.7626" y2="351.3934"/><line style="stroke:#181818;stroke-width:1;" x1="1507.3791" x2="1512.01" y1="349.8934" y2="343.37"/><line style="stroke:#181818;stroke-width:1;" x1="1430.0508" x2="1428.3997" y1="438.4104" y2="448.2731"/><line style="stroke:#181818;stroke-width:1;" x1="1430.0508" x2="1420.1203" y1="438.4104" y2="439.5869"/><line style="stroke:#181818;stroke-width:1;" x1="1430.0508" x2="1424.26" y1="438.4104" y2="443.93"/><ellipse cx="1434.3939" cy="434.2706" fill="none" rx="4" ry="4" style="stroke:#181818;stroke-width:1;"/><text fill="#000000" font-family="sans-serif" font-size="13" lengthAdjust="spacing" textLength="45.5063" x="1490.09" y="386.0369">wished</text></g><!--link tags to product_tags--><g class="link" data-entity-1="tags" data-entity-2="product_tags" data-source-line="130" data-uid="lnk30" id="link_tags_product_tags"><path codeLine="130" d="M1982.09,310.61 C1982.09,354.51 1982.09,398.8 1982.09,442.59" fill="none" id="tags-product_tags" style="stroke:#181818;stroke-width:1;"/><line style="stroke:#181818;stroke-width:1;" x1="1978.09" x2="1986.09" y1="306.61" y2="306.61"/><line style="stroke:#181818;stroke-width:1;" x1="1978.09" x2="1986.09" y1="309.61" y2="309.61"/><line style="stroke:#181818;stroke-width:1;" x1="1982.09" x2="1982.09" y1="310.61" y2="302.61"/><line style="stroke:#181818;stroke-width:1;" x1="1982.09" x2="1988.09" y1="452.59" y2="460.59"/><line style="stroke:#181818;stroke-width:1;" x1="1982.09" x2="1976.09" y1="452.59" y2="460.59"/><line style="stroke:#181818;stroke-width:1;" x1="1982.09" x2="1982.09" y1="452.59" y2="460.59"/><ellipse cx="1982.09" cy="446.59" fill="none" rx="4" ry="4" style="stroke:#181818;stroke-width:1;"/><text fill="#000000" font-family="sans-serif" font-size="13" lengthAdjust="spacing" textLength="47.2456" x="1983.09" y="386.0369">used in</text></g><!--link orders to order_items--><g class="link" data-entity-1="orders" data-entity-2="order_items" data-source-line="132" data-uid="lnk31" id="link_orders_order_items"><path codeLine="132" d="M477.273,570.3505 C486.963,576.2505 490.12,577.53 500.09,582.05 C655.65,652.6 833.2872,687.7128 954.7572,705.8428" fill="none" id="orders-order_items" style="stroke:#181818;stroke-width:1;"/><line style="stroke:#181818;stroke-width:1;" x1="471.7763" x2="475.9368" y1="571.6868" y2="564.8537"/><line style="stroke:#181818;stroke-width:1;" x1="474.3387" x2="478.4991" y1="573.2469" y2="566.4139"/><line style="stroke:#181818;stroke-width:1;" x1="477.273" x2="470.44" y1="570.3505" y2="566.19"/><line style="stroke:#181818;stroke-width:1;" x1="964.6476" x2="973.4457" y1="707.319" y2="702.5657"/><line style="stroke:#181818;stroke-width:1;" x1="964.6476" x2="971.6743" y1="707.319" y2="714.4343"/><line style="stroke:#181818;stroke-width:1;" x1="964.6476" x2="972.56" y1="707.319" y2="708.5"/><ellipse cx="958.7134" cy="706.4333" fill="none" rx="4" ry="4" style="stroke:#181818;stroke-width:1;"/><text fill="#000000" font-family="sans-serif" font-size="13" lengthAdjust="spacing" textLength="55.0278" x="609.09" y="625.1169">contains</text></g><!--SRC=[jLNDZjCm4BxdAQnUa93s1LQhbHOHK0Lq0NKbRfQL3AcrIHniXsxPvK8UWaT0GjmuSE5jyYACyzCuZPDqAt5gCz_dyJUVnsD8DTSxaYkGYjnxX3pb8JadozNQV-c_9nSNRrzTNfem98p7YApz3siCtwoMxsxy6igOKbiXGxfXQjDGC9wo1BelAMBhAv30D8IKQOmzlrhxw-KRt_lgUL3hKQ0K5-cq92EQ7c0lQgnPJxMuXTIf6kuoBa4TA22L4vH5gADJopFAmX3PwlWA0aGZ8JbCrj3tA6CILpjBwX9dKeHve1-HDWGLI9vfDCJQI_80khN6Cos2srwagM4tOlAS1QrI-h5LAyNsHC5TLfxWwKnMt-mxehfQJtCPT_knM5CDT_Q9AuhzRdP_TdtzshzQ7L6kPj6nXsAtui0lsYKQgQIz04XqGdONIboj8PbKTiH5gj1zwqpv-obdzTwzJfhn3gV7p02QqAY5PZ5rDJJJ-IEkR2LYtgs6vfHoWZMLRjH4irm6E47j6Zfj4Zvps9xgqBGioJHFe_vvYIJfZS0vxxPSRMAkzFzHEBSx2nEUqbXCNy2QvTw11Vtng9cC0A_YBeD1qCumDbv75JyXPV6pB7wLnT_osv-o-54Mlwi_HLbyz-ft-E7Xx4pSTu_WELbWOopwg7MrdNXpfPnOsqq8RYNcECIxqtGkj-n6N6I07MHoUDQZrr3thnKIM_IBuGwfLWJ9zLk8EVSP6bep_rjXXt1lY289VoC8Xxo-VJZgJM18isU2gTLykj9PZjP_NQIUhUR3aBnAwOXwj3qaF4LMSvnkMO58DJvNQl4F]--></g></svg>